<?xml version="1.0" encoding="UTF-8" standalone="no"?>
<!-- Generator: Adobe Illustrator 27.2.0, SVG Export Plug-In . SVG Version: 6.00 Build 0)  -->

<svg xmlns:dc="http://purl.org/dc/elements/1.1/" xmlns:cc="http://creativecommons.org/ns#" xmlns:rdf="http://www.w3.org/1999/02/22-rdf-syntax-ns#" xmlns:svg="http://www.w3.org/2000/svg" xmlns="http://www.w3.org/2000/svg" xmlns:sodipodi="http://sodipodi.sourceforge.net/DTD/sodipodi-0.dtd" xmlns:inkscape="http://www.inkscape.org/namespaces/inkscape" version="1.1" id="Ebene_1" x="0px" y="0px" viewBox="0 0 64 64" style="enable-background:new 0 0 64 64;" xml:space="preserve" sodipodi:docname="Droplet-icon_standard.svg" inkscape:version="0.92.5 (2060ec1f9f, 2020-04-08)"><metadata id="metadata23"><rdf:RDF><cc:Work rdf:about=""><dc:format>image/svg+xml</dc:format><dc:type rdf:resource="http://purl.org/dc/dcmitype/StillImage" /></cc:Work></rdf:RDF></metadata><defs id="defs21" /><sodipodi:namedview pagecolor="#ffffff" bordercolor="#666666" borderopacity="1" objecttolerance="10" gridtolerance="10" guidetolerance="10" inkscape:pageopacity="0" inkscape:pageshadow="2" inkscape:window-width="1920" inkscape:window-height="1009" id="namedview19" showgrid="false" inkscape:zoom="10.429825" inkscape:cx="11.155624" inkscape:cy="33.837181" inkscape:window-x="0" inkscape:window-y="0" inkscape:window-maximized="1" inkscape:current-layer="Ebene_1" showguides="true" inkscape:guide-bbox="true"><sodipodi:guide position="32,7.3826742" orientation="1,0" id="guide830" inkscape:locked="true" inkscape:label="" inkscape:color="rgb(0,0,255)" /><sodipodi:guide position="44.967197,32" orientation="0,1" id="guide832" inkscape:locked="true" inkscape:label="" inkscape:color="rgb(0,0,255)" /></sodipodi:namedview>
<style type="text/css" id="style2">
	.st0{fill:#FFFFFF;}
	.st1{fill:#D8D8D9;}
</style>

<g id="g16" transform="matrix(1.3202247,0,0,1.3165266,-10.115168,-11.247899)" style="stroke-width:0.75850987">
	<g id="g14" style="stroke-width:0.75850987">
		<g id="g8" style="stroke-width:0.75850987">
			<path class="st1" d="m 42.7,26.5 c 1.1,2.4 1.6,3.4 1.6,6.2 0,6.9 -5.6,12.5 -12.5,12.5 -6.9,0 -12.5,-5.6 -12.5,-12.5 0,-6.9 5.6,-12.5 12.5,-12.5 1.5,0 3.7,0.2 6.5,1.9 l 4.6,-3.3 c -3,-2.4 -6.8,-3.7 -11,-3.7 -9.8,0 -17.8,8 -17.8,17.8 0,9.8 8,17.8 17.8,17.8 9.8,0 17.8,-8 17.8,-17.8 0,-4 -1.3,-7.6 -3.5,-10.6" id="path6" inkscape:connector-curvature="0" style="fill:#d8d8d9;stroke-width:0.75850987" />
		</g>
		<g id="g12" style="stroke-width:0.75850987">
			<polygon class="st1" points="35.2,33.4 45.4,15 28.6,31.7 29.5,34.9 " id="polygon10" style="fill:#d8d8d9;stroke-width:0.75850987" />
		</g>
	</g>
</g>
</svg>