<?xml version="1.0" encoding="UTF-8" standalone="no"?>
<svg xmlns:dc="http://purl.org/dc/elements/1.1/" xmlns:cc="http://creativecommons.org/ns#" xmlns:rdf="http://www.w3.org/1999/02/22-rdf-syntax-ns#" xmlns:svg="http://www.w3.org/2000/svg" xmlns="http://www.w3.org/2000/svg" xmlns:sodipodi="http://sodipodi.sourceforge.net/DTD/sodipodi-0.dtd" xmlns:inkscape="http://www.inkscape.org/namespaces/inkscape" id="svg821" version="1.1" viewBox="0 0 20 20" height="20" width="20" sodipodi:docname="contentdroplet.svg" inkscape:version="0.92.5 (2060ec1f9f, 2020-04-08)">
  <sodipodi:namedview pagecolor="#ffffff" bordercolor="#666666" borderopacity="1" objecttolerance="10" gridtolerance="10" guidetolerance="10" inkscape:pageopacity="0" inkscape:pageshadow="2" inkscape:window-width="1920" inkscape:window-height="1009" id="namedview10" showgrid="false" inkscape:zoom="11.8" inkscape:cx="-15.750028" inkscape:cy="6.9362305" inkscape:window-x="0" inkscape:window-y="0" inkscape:window-maximized="1" inkscape:current-layer="g1396" />
  <defs id="defs815" />
  <metadata id="metadata818">
    <rdf:RDF>
      <cc:Work rdf:about="">
        <dc:format>image/svg+xml</dc:format>
        <dc:type rdf:resource="http://purl.org/dc/dcmitype/StillImage" />
        <dc:title />
      </cc:Work>
    </rdf:RDF>
  </metadata>
  <g transform="matrix(4.6637313,0,0,4.6637313,-1.8384508,-1362.8972)" id="layer1" style="stroke-width:0.21442059">
    <g transform="translate(-0.38173517,0.24269329)" id="g1396" style="stroke-width:0.21442059">
      <g style="stroke-width:0.24708351" id="g4587-6-3" transform="matrix(0.86780614,0,0,0.86780614,-5.2834844,45.178392)" />
      <path style="fill:black;fill-opacity:1;stroke:none;stroke-width:0.38595709;stroke-miterlimit:4;stroke-dasharray:none;stroke-opacity:1" d="m 3.4355033,292.02947 c 0,0 -0.9566873,0.90644 -0.9566873,1.59425 0,0.52833 0.4283605,0.95668 0.9566873,0.95668 0.5283268,0 0.9566871,-0.42835 0.9566871,-0.95668 0,-0.63872 -0.2590884,-0.89665 -0.9566871,-1.59425 z m -0.1648016,0.55446 a 0.062575,0.062575 0 0 1 0.052024,0.10161 c 0,0 -0.2634682,0.3463 -0.3746442,0.72938 a 0.06262922,0.06262922 0 1 1 -0.1204588,-0.0342 c 0.120215,-0.41422 0.3955937,-0.77163 0.3955937,-0.77163 a 0.062575,0.062575 0 0 1 0.040851,-0.0244 0.062575,0.062575 0 0 1 0.00663,-7e-4 z" id="path2" inkscape:connector-curvature="0" />
      <path style="color:black;font-style:normal;font-variant:normal;font-weight:normal;font-stretch:normal;font-size:medium;line-height:normal;font-family:sans-serif;font-variant-ligatures:normal;font-variant-position:normal;font-variant-caps:normal;font-variant-numeric:normal;font-variant-alternates:normal;font-feature-settings:normal;text-indent:0;text-align:start;text-decoration:none;text-decoration-line:none;text-decoration-style:solid;text-decoration-color:black;letter-spacing:normal;word-spacing:normal;text-transform:none;writing-mode:lr-tb;direction:ltr;text-orientation:mixed;dominant-baseline:auto;baseline-shift:baseline;text-anchor:start;white-space:normal;shape-padding:0;clip-rule:nonzero;display:inline;overflow:visible;visibility:visible;opacity:1;isolation:auto;mix-blend-mode:normal;color-interpolation:sRGB;color-interpolation-filters:linearRGB;solid-color:black;solid-opacity:1;vector-effect:none;fill:black;fill-opacity:1;fill-rule:nonzero;stroke:none;stroke-width:0.42884117;stroke-linecap:round;stroke-linejoin:round;stroke-miterlimit:4;stroke-dasharray:none;stroke-dashoffset:0;stroke-opacity:1;paint-order:fill markers stroke;color-rendering:auto;image-rendering:auto;shape-rendering:auto;text-rendering:auto;enable-background:accumulate" d="m 1.9104215,292.31 c -0.3325004,0.0437 -0.5810909,0.37378 -0.5471403,0.70447 5.633e-4,0.84274 -0.00113,1.6855 8.48e-4,2.52821 0.010153,0.3547 0.3525379,0.6442 0.7029331,0.6097 0.6035569,-0.002 1.2073916,0.004 1.8107711,-0.003 0.3412311,-0.0274 0.6100281,-0.35991 0.5772447,-0.69848 v -0.6415 l -0.4231943,0.38614 c -0.0084,0.13305 0.011342,0.2702 -0.02163,0.39985 -0.047633,0.13251 -0.1983976,0.13622 -0.316253,0.1296 -0.5695873,-7.1e-4 -1.1392416,0.001 -1.7087871,-10e-4 -0.136685,-0.007 -0.2115815,-0.14876 -0.1922445,-0.27302 7.106e-4,-0.84259 -0.00142,-1.68526 0.00107,-2.52781 0.00675,-0.13667 0.2487158,-0.22974 0.3729683,-0.21041 l 0.3268493,-0.4083 c -0.1517649,0 -0.3416748,-0.009 -0.5834353,0.006" id="rect819" inkscape:connector-curvature="0" sodipodi:nodetypes="cccccccccccccccc" />
    </g>
  </g>
</svg>
