<?xml version="1.0" encoding="UTF-8" standalone="no"?>
<!-- Generator: Adobe Illustrator 27.2.0, SVG Export Plug-In . SVG Version: 6.00 Build 0)  -->

<svg xmlns:dc="http://purl.org/dc/elements/1.1/" xmlns:cc="http://creativecommons.org/ns#" xmlns:rdf="http://www.w3.org/1999/02/22-rdf-syntax-ns#" xmlns:svg="http://www.w3.org/2000/svg" xmlns="http://www.w3.org/2000/svg" xmlns:sodipodi="http://sodipodi.sourceforge.net/DTD/sodipodi-0.dtd" xmlns:inkscape="http://www.inkscape.org/namespaces/inkscape" version="1.1" id="Ebene_1" x="0px" y="0px" viewBox="0 0 64 64" style="enable-background:new 0 0 64 64;" xml:space="preserve" sodipodi:docname="contentdroplets-icon-icon.svg" inkscape:version="0.92.5 (2060ec1f9f, 2020-04-08)"><metadata id="metadata23"><rdf:RDF><cc:Work rdf:about=""><dc:format>image/svg+xml</dc:format><dc:type rdf:resource="http://purl.org/dc/dcmitype/StillImage" /></cc:Work></rdf:RDF></metadata><defs id="defs21" /><sodipodi:namedview pagecolor="#ffffff" bordercolor="#666666" borderopacity="1" objecttolerance="10" gridtolerance="10" guidetolerance="10" inkscape:pageopacity="0" inkscape:pageshadow="2" inkscape:window-width="1920" inkscape:window-height="1009" id="namedview19" showgrid="false" inkscape:zoom="7.375" inkscape:cx="3.349577" inkscape:cy="40.093805" inkscape:window-x="0" inkscape:window-y="0" inkscape:window-maximized="1" inkscape:current-layer="Ebene_1" showguides="true" inkscape:guide-bbox="true"><sodipodi:guide position="32,7.3826742" orientation="1,0" id="guide830" inkscape:locked="false" inkscape:label="" inkscape:color="rgb(0,0,255)" /><sodipodi:guide position="44.967197,32" orientation="0,1" id="guide832" inkscape:locked="false" inkscape:label="" inkscape:color="rgb(0,0,255)" /></sodipodi:namedview>
<style type="text/css" id="style2">
	.st0{fill:#FFFFFF;}
	.st1{fill:#D8D8D9;}
</style>


<ellipse style="opacity:1;fill:#f1f3f9;fill-opacity:1;stroke:none;stroke-width:2.22;stroke-linecap:round;stroke-linejoin:round;stroke-miterlimit:4;stroke-dasharray:none;stroke-dashoffset:0;stroke-opacity:1;paint-order:fill markers stroke" id="path820" cx="32" cy="32" rx="23.298569" ry="22.531538" /><path sodipodi:type="star" style="opacity:1;fill:#3e5389;fill-opacity:1;stroke:#3e5389;stroke-width:1.86811984;stroke-linecap:round;stroke-linejoin:round;stroke-miterlimit:4;stroke-dasharray:none;stroke-dashoffset:0;stroke-opacity:1;paint-order:fill markers stroke" id="path865" sodipodi:sides="5" sodipodi:cx="20.577612" sodipodi:cy="26.406662" sodipodi:r1="10.882933" sodipodi:r2="5.4414663" sodipodi:arg1="0.95378832" sodipodi:arg2="1.5821069" inkscape:flatsided="false" inkscape:rounded="0" inkscape:randomized="0" d="m 26.874449,35.282926 -6.358382,-3.435146 -6.434454,3.290446 1.30217,-7.108699 -5.117756,-5.102726 7.163167,-0.958271 3.271507,-6.444105 3.124911,6.516455 7.139659,1.120051 -5.231866,4.985662 z" inkscape:transform-center-x="0.3390807" inkscape:transform-center-y="-0.064172211" transform="matrix(0.58879878,0.00579307,-0.00579307,0.58879878,13.01126,24.764255)" /><path style="fill:#94c11f;fill-opacity:1;stroke:none;stroke-width:0.09999999;stroke-miterlimit:4;stroke-dasharray:none;stroke-opacity:1" d="m 24.425045,28.994446 c -0.295837,0.416624 -0.911829,0.330792 -1.219904,-0.0224 -1.429704,-1.177255 -2.865931,-2.346928 -4.291556,-3.528918 -0.354403,-0.320742 -0.24664,-0.87241 0.08167,-1.166382 0.327205,-0.373292 0.606434,-0.794319 0.970914,-1.130704 0.37848,-0.280411 0.837824,-0.04938 1.125649,0.243186 0.813987,0.668416 1.627974,1.336831 2.441959,2.005246 1.836341,-2.233499 3.667322,-4.471553 5.507016,-6.702203 0.31556,-0.360006 0.87517,-0.24456 1.167942,0.08151 0.373292,0.327206 0.794319,0.606432 1.130703,0.970915 0.280411,0.378479 0.04938,0.837822 -0.243186,1.125648 -2.223734,2.708031 -4.44747,5.416065 -6.671204,8.124096 z" id="path8-3" inkscape:connector-curvature="0" /><g transform="matrix(0.14151525,0,0,0.14139901,25.045131,1.63326)" style="fill:#951b81;fill-opacity:1;stroke-width:26.71853447" id="g824"><ellipse style="opacity:1;fill:#951b81;fill-opacity:1;stroke:none;stroke-width:65.86117554;stroke-linecap:round;stroke-linejoin:round;stroke-miterlimit:4;stroke-dasharray:none;stroke-dashoffset:74.26771545;stroke-opacity:1;paint-order:fill markers stroke" id="path827" cx="102.81169" cy="138.21843" rx="22.451504" ry="22.01775" /><path style="fill:#951b81;fill-opacity:1;stroke:none;stroke-width:7.06927919px;stroke-linecap:butt;stroke-linejoin:miter;stroke-opacity:1" d="m 62.155718,197.31295 c 0,0 3.774778,-38.29063 40.999712,-38.45497 37.22493,-0.16433 40.01866,38.45497 40.01866,38.45497 z" id="path855" inkscape:connector-curvature="0" /></g><path inkscape:connector-curvature="0" d="m 37.960726,44.551118 a 1.3782196,1.3782196 0 1 1 2.756397,0.01516 1.3782196,1.3782196 0 0 1 -2.756397,-0.01516 z m 0.180578,-8.27534 a 1.2472887,1.2472887 0 1 1 2.480757,0.01364 l -0.508951,4.83069 a 0.76215539,0.76215539 0 0 1 -1.516019,-0.0083 z" id="path2-3" style="fill:#bd1d1d;fill-opacity:1;stroke-width:11.12787151" /></svg>