<?xml version="1.0" encoding="UTF-8" standalone="no"?>
<!-- Created with Inkscape (http://www.inkscape.org/) -->

<svg xmlns:dc="http://purl.org/dc/elements/1.1/" xmlns:cc="http://creativecommons.org/ns#" xmlns:rdf="http://www.w3.org/1999/02/22-rdf-syntax-ns#" xmlns:svg="http://www.w3.org/2000/svg" xmlns="http://www.w3.org/2000/svg" xmlns:sodipodi="http://sodipodi.sourceforge.net/DTD/sodipodi-0.dtd" xmlns:inkscape="http://www.inkscape.org/namespaces/inkscape" width="64" height="64" viewBox="0 0 16.933333 16.933333" version="1.1" id="svg8" inkscape:version="0.92.5 (2060ec1f9f, 2020-04-08)" sodipodi:docname="contentdroplets-neutral-icon.svg">
  <defs id="defs2">
    <marker inkscape:stockid="EmptyTriangleOutS" orient="auto" refY="0.0" refX="0.0" id="EmptyTriangleOutS" style="overflow:visible" inkscape:isstock="true">
      <path id="path1338" d="M 5.77,0.0 L -2.88,5.0 L -2.88,-5.0 L 5.77,0.0 z " style="fill-rule:evenodd;fill:white;stroke:black;stroke-width:1pt;stroke-opacity:1;fill-opacity:0" transform="scale(0.2) translate(-3.0,0)" />
    </marker>
    <marker inkscape:stockid="Scissors" orient="auto" refY="0.0" refX="0.0" id="Scissors" style="overflow:visible" inkscape:isstock="true">
      <path id="schere" d="M 9.0898857,-3.6061018 C 8.1198849,-4.7769976 6.3697607,-4.7358294 5.0623558,-4.2327734 L -3.1500488,-1.1548705 C -5.5383421,-2.4615840 -7.8983361,-2.0874077 -7.8983361,-2.7236578 C -7.8983361,-3.2209742 -7.4416699,-3.1119800 -7.5100293,-4.4068519 C -7.5756648,-5.6501286 -8.8736064,-6.5699315 -10.100428,-6.4884954 C -11.327699,-6.4958500 -12.599867,-5.5553341 -12.610769,-4.2584343 C -12.702194,-2.9520479 -11.603560,-1.7387447 -10.304005,-1.6532027 C -8.7816644,-1.4265411 -6.0857470,-2.3487593 -4.8210600,-0.082342643 C -5.7633447,1.6559151 -7.4350844,1.6607341 -8.9465707,1.5737277 C -10.201445,1.5014928 -11.708664,1.8611256 -12.307219,3.0945882 C -12.885586,4.2766744 -12.318421,5.9591904 -10.990470,6.3210002 C -9.6502788,6.8128279 -7.8098011,6.1912892 -7.4910978,4.6502760 C -7.2454393,3.4624530 -8.0864637,2.9043186 -7.7636052,2.4731223 C -7.5199917,2.1477623 -5.9728246,2.3362771 -3.2164999,1.0982979 L 5.6763468,4.2330688 C 6.8000164,4.5467672 8.1730685,4.5362646 9.1684433,3.4313614 L -0.051640930,-0.053722219 L 9.0898857,-3.6061018 z M -9.2179159,-5.5066058 C -7.9233569,-4.7838060 -8.0290767,-2.8230356 -9.3743431,-2.4433169 C -10.590861,-2.0196559 -12.145370,-3.2022863 -11.757521,-4.5207817 C -11.530373,-5.6026336 -10.104134,-6.0014137 -9.2179159,-5.5066058 z M -9.1616516,2.5107591 C -7.8108215,3.0096239 -8.0402087,5.2951947 -9.4138723,5.6023681 C -10.324932,5.9187072 -11.627422,5.4635705 -11.719569,4.3902287 C -11.897178,3.0851737 -10.363484,1.9060805 -9.1616516,2.5107591 z " style="fill:white;stroke:black;stroke-opacity:1;fill-opacity:0" />
    </marker>
    <marker inkscape:stockid="Arrow1Mend" orient="auto" refY="0.0" refX="0.0" id="marker1927" style="overflow:visible;" inkscape:isstock="true">
      <path id="path1925" d="M 0.0,0.0 L 5.0,-5.0 L -12.5,0.0 L 5.0,5.0 L 0.0,0.0 z " style="fill-rule:evenodd;stroke:black;stroke-width:1pt;stroke-opacity:1;fill:white;fill-opacity:0" transform="scale(0.4) rotate(180) translate(10,0)" />
    </marker>
    <marker inkscape:stockid="Arrow1Mend" orient="auto" refY="0.0" refX="0.0" id="Arrow1Mend" style="overflow:visible;" inkscape:isstock="true">
      <path id="path1862" d="M 0.0,0.0 L 5.0,-5.0 L -12.5,0.0 L 5.0,5.0 L 0.0,0.0 z " style="fill-rule:evenodd;stroke:black;stroke-width:1pt;stroke-opacity:1" transform="scale(0.4) rotate(180) translate(10,0)" />
    </marker>
    <marker inkscape:stockid="Arrow1Lend" orient="auto" refY="0.0" refX="0.0" id="marker1806" style="overflow:visible;" inkscape:isstock="true">
      <path id="path1804" d="M 0.0,0.0 L 5.0,-5.0 L -12.5,0.0 L 5.0,5.0 L 0.0,0.0 z " style="fill-rule:evenodd;stroke:black;stroke-width:1pt;stroke-opacity:1" transform="scale(0.8) rotate(180) translate(12.5,0)" />
    </marker>
    <marker inkscape:stockid="Arrow1Lend" orient="auto" refY="0.0" refX="0.0" id="marker1754" style="overflow:visible;" inkscape:isstock="true">
      <path id="path1752" d="M 0.0,0.0 L 5.0,-5.0 L -12.5,0.0 L 5.0,5.0 L 0.0,0.0 z " style="fill-rule:evenodd;stroke:black;stroke-width:1pt;stroke-opacity:1" transform="scale(0.8) rotate(180) translate(12.5,0)" />
    </marker>
    <marker inkscape:stockid="Arrow2Lend" orient="auto" refY="0.0" refX="0.0" id="Arrow2Lend" style="overflow:visible;" inkscape:isstock="true">
      <path id="path875" style="fill-rule:evenodd;stroke-width:0.625;stroke-linejoin:round;stroke:black;stroke-opacity:1" d="M 8.7185878,4.0337352 L -2.2072895,0.016013256 L 8.7185884,-4.0017078 C 6.9730900,-1.6296469 6.9831476,1.6157441 8.7185878,4.0337352 z " transform="scale(1.1) rotate(180) translate(1,0)" />
    </marker>
    <marker inkscape:stockid="TriangleOutL" orient="auto" refY="0.0" refX="0.0" id="TriangleOutL" style="overflow:visible" inkscape:isstock="true">
      <path id="path996" d="M 5.77,0.0 L -2.88,5.0 L -2.88,-5.0 L 5.77,0.0 z " style="fill-rule:evenodd;stroke:black;stroke-width:1pt;stroke-opacity:1" transform="scale(0.8)" />
    </marker>
    <marker inkscape:stockid="Arrow1Lend" orient="auto" refY="0.0" refX="0.0" id="Arrow1Lend" style="overflow:visible;" inkscape:isstock="true">
      <path id="path857" d="M 0.0,0.0 L 5.0,-5.0 L -12.5,0.0 L 5.0,5.0 L 0.0,0.0 z " style="fill-rule:evenodd;stroke:black;stroke-width:1pt;stroke-opacity:1" transform="scale(0.8) rotate(180) translate(12.5,0)" />
    </marker>
    <marker inkscape:stockid="Arrow1Lstart" orient="auto" refY="0.0" refX="0.0" id="marker1178" style="overflow:visible" inkscape:isstock="true">
      <path id="path1176" d="M 0.0,0.0 L 5.0,-5.0 L -12.5,0.0 L 5.0,5.0 L 0.0,0.0 z " style="fill-rule:evenodd;stroke:black;stroke-width:1pt;stroke-opacity:1" transform="scale(0.8) translate(12.5,0)" />
    </marker>
    <marker inkscape:stockid="Arrow1Lstart" orient="auto" refY="0.0" refX="0.0" id="Arrow1Lstart" style="overflow:visible" inkscape:isstock="true">
      <path id="path900" d="M 0.0,0.0 L 5.0,-5.0 L -12.5,0.0 L 5.0,5.0 L 0.0,0.0 z " style="fill-rule:evenodd;stroke:black;stroke-width:1pt;stroke-opacity:1" transform="scale(0.8) translate(12.5,0)" />
    </marker>
  </defs>
  <sodipodi:namedview id="base" pagecolor="#ffffff" bordercolor="#666666" borderopacity="1.0" inkscape:pageopacity="0.0" inkscape:pageshadow="2" inkscape:zoom="10" inkscape:cx="3.528414" inkscape:cy="31.71419" inkscape:document-units="px" inkscape:current-layer="g1680" showgrid="false" units="px" width="64px" inkscape:pagecheckerboard="false" inkscape:snap-text-baseline="false" showguides="true" inkscape:guide-bbox="true" inkscape:window-width="1920" inkscape:window-height="1009" inkscape:window-x="0" inkscape:window-y="0" inkscape:window-maximized="1">
    <sodipodi:guide position="8.4666665,22.749442" orientation="1,0" id="guide890" inkscape:locked="true" inkscape:label="" inkscape:color="rgb(0,0,255)" />
    <sodipodi:guide position="15.954375,15.416106" orientation="0,1" id="guide892" inkscape:locked="false" />
    <sodipodi:guide position="3.5671502,6.1539247" orientation="1,0" id="guide894" inkscape:locked="false" />
    <sodipodi:guide position="10.514383,15.416106" orientation="0,1" id="guide1909" inkscape:locked="false" />
    <sodipodi:guide position="8.9989648,2.3547916" orientation="0,1" id="guide1911" inkscape:locked="false" />
    <sodipodi:guide position="0.92604166,14.47271" orientation="0,1" id="guide1915" inkscape:locked="false" />
    <sodipodi:guide position="12.964583,8.4666665" orientation="0,1" id="guide952" inkscape:locked="true" inkscape:label="" inkscape:color="rgb(0,0,255)" />
  </sodipodi:namedview>
  <metadata id="metadata5">
    <rdf:RDF>
      <cc:Work rdf:about="">
        <dc:format>image/svg+xml</dc:format>
        <dc:type rdf:resource="http://purl.org/dc/dcmitype/StillImage" />
        <dc:title />
      </cc:Work>
    </rdf:RDF>
  </metadata>
  <g inkscape:label="Ebene 1" inkscape:groupmode="layer" id="layer1" transform="translate(0,-280.06666)">
    <g id="g861">
      <g transform="matrix(0.07911191,0,0,0.07911191,2.8855868,281.60952)" class="st2" id="g10" style="fill:#3e5389;stroke-width:3.34441876">
        <circle style="opacity:1;fill:#747474;fill-opacity:1;stroke:#747474;stroke-width:3.67886043;stroke-linecap:round;stroke-linejoin:round;stroke-miterlimit:4;stroke-dasharray:none;stroke-dashoffset:74.26771545;stroke-opacity:1;paint-order:fill markers stroke" id="path863" cx="70.546646" cy="87.519142" r="76.252739" />
        <g id="g1680" transform="matrix(0.72725456,0,0,0.72725456,166.63637,23.870447)" style="fill:none;fill-opacity:1;stroke:white;stroke-width:4.59869051;stroke-opacity:1">
          <path inkscape:connector-curvature="0" id="path954" d="M -196.0035,87.519142 H -69.584488" style="fill:none;fill-opacity:1;stroke:white;stroke-width:13.33620167;stroke-linecap:round;stroke-linejoin:miter;stroke-miterlimit:4.69999981;stroke-dasharray:none;stroke-opacity:1" />
          <path inkscape:connector-curvature="0" id="path1660" d="m -113.81403,41.70061 44.229542,45.818532" style="fill:none;fill-opacity:1;stroke:white;stroke-width:13.33620167;stroke-linecap:round;stroke-linejoin:miter;stroke-miterlimit:4;stroke-dasharray:none;stroke-opacity:1" />
          <path inkscape:connector-curvature="0" id="path1660-6" d="M -113.81404,133.33767 -69.584488,87.519142" style="fill:none;fill-opacity:1;stroke:white;stroke-width:13.33620167;stroke-linecap:round;stroke-linejoin:miter;stroke-miterlimit:4;stroke-dasharray:none;stroke-opacity:1" />
        </g>
      </g>
    </g>
  </g>
  <style id="style817" type="text/css">
	.st0{fill:#FFFFFF;}
	.st1{fill:none;}
	.st2{fill:#3E5389;}
</style>
</svg>
