<?xml version="1.0" encoding="UTF-8" standalone="no"?>
<!-- Created with Inkscape (http://www.inkscape.org/) -->

<svg xmlns:dc="http://purl.org/dc/elements/1.1/" xmlns:cc="http://creativecommons.org/ns#" xmlns:rdf="http://www.w3.org/1999/02/22-rdf-syntax-ns#" xmlns:svg="http://www.w3.org/2000/svg" xmlns="http://www.w3.org/2000/svg" xmlns:sodipodi="http://sodipodi.sourceforge.net/DTD/sodipodi-0.dtd" xmlns:inkscape="http://www.inkscape.org/namespaces/inkscape" width="64" height="64" viewBox="0 0 16.933333 16.933333" version="1.1" id="svg8" inkscape:version="0.92.5 (2060ec1f9f, 2020-04-08)" sodipodi:docname="code.svg">
  <defs id="defs2">
    <marker inkscape:stockid="Arrow1Lstart" orient="auto" refY="0.0" refX="0.0" id="marker1178" style="overflow:visible" inkscape:isstock="true">
      <path id="path1176" d="M 0.0,0.0 L 5.0,-5.0 L -12.5,0.0 L 5.0,5.0 L 0.0,0.0 z " style="fill-rule:evenodd;stroke:black;stroke-width:1pt;stroke-opacity:1" transform="scale(0.8) translate(12.5,0)" />
    </marker>
    <marker inkscape:stockid="Arrow1Lstart" orient="auto" refY="0.0" refX="0.0" id="Arrow1Lstart" style="overflow:visible" inkscape:isstock="true">
      <path id="path900" d="M 0.0,0.0 L 5.0,-5.0 L -12.5,0.0 L 5.0,5.0 L 0.0,0.0 z " style="fill-rule:evenodd;stroke:black;stroke-width:1pt;stroke-opacity:1" transform="scale(0.8) translate(12.5,0)" />
    </marker>
  </defs>
  <sodipodi:namedview id="base" pagecolor="#ffffff" bordercolor="#666666" borderopacity="1.0" inkscape:pageopacity="0.0" inkscape:pageshadow="2" inkscape:zoom="10" inkscape:cx="11.395834" inkscape:cy="40.630125" inkscape:document-units="px" inkscape:current-layer="g861" showgrid="false" units="px" width="64px" inkscape:pagecheckerboard="false" inkscape:snap-text-baseline="false" showguides="true" inkscape:guide-bbox="true" inkscape:window-width="1920" inkscape:window-height="1009" inkscape:window-x="0" inkscape:window-y="0" inkscape:window-maximized="1" inkscape:snap-others="false">
    <sodipodi:guide position="8.4808406,22.749442" orientation="1,0" id="guide890" inkscape:locked="false" />
    <sodipodi:guide position="11.562291,5.8208332" orientation="0,1" id="guide892" inkscape:locked="false" />
    <sodipodi:guide position="3.5671502,6.1539247" orientation="1,0" id="guide894" inkscape:locked="false" />
    <sodipodi:guide position="13.429966,4.3703496" orientation="1,0" id="guide896" inkscape:locked="false" />
    <sodipodi:guide position="7.9512683,10.664054" orientation="1,0" id="guide1887" inkscape:locked="false" />
    <sodipodi:guide position="8.9989648,9.3357244" orientation="1,0" id="guide1889" inkscape:locked="false" />
    <sodipodi:guide position="10.514383,15.416106" orientation="0,1" id="guide1909" inkscape:locked="false" />
    <sodipodi:guide position="8.9989648,2.3547916" orientation="0,1" id="guide1911" inkscape:locked="false" />
    <sodipodi:guide position="0.92604166,14.47271" orientation="0,1" id="guide1915" inkscape:locked="false" />
    <sodipodi:guide position="-7.9904165,2.3547916" orientation="1,0" id="guide1039" inkscape:locked="false" />
  </sodipodi:namedview>
  <metadata id="metadata5">
    <rdf:RDF>
      <cc:Work rdf:about="">
        <dc:format>image/svg+xml</dc:format>
        <dc:type rdf:resource="http://purl.org/dc/dcmitype/StillImage" />
        <dc:title />
      </cc:Work>
    </rdf:RDF>
  </metadata>
  <g inkscape:label="Ebene 1" inkscape:groupmode="layer" id="layer1" transform="translate(0,-280.06666)">
    <g id="g861">
      <path style="color:black;font-style:normal;font-variant:normal;font-weight:normal;font-stretch:normal;font-size:medium;line-height:normal;font-family:sans-serif;font-variant-ligatures:normal;font-variant-position:normal;font-variant-caps:normal;font-variant-numeric:normal;font-variant-alternates:normal;font-feature-settings:normal;text-indent:0;text-align:start;text-decoration:none;text-decoration-line:none;text-decoration-style:solid;text-decoration-color:black;letter-spacing:normal;word-spacing:normal;text-transform:none;writing-mode:lr-tb;direction:ltr;text-orientation:mixed;dominant-baseline:auto;baseline-shift:baseline;text-anchor:start;white-space:normal;shape-padding:0;clip-rule:nonzero;display:inline;overflow:visible;visibility:visible;opacity:1;isolation:auto;mix-blend-mode:normal;color-interpolation:sRGB;color-interpolation-filters:linearRGB;solid-color:black;solid-opacity:1;vector-effect:none;fill:#f28c00;fill-opacity:1;fill-rule:nonzero;stroke:none;stroke-width:1.99999988;stroke-linecap:round;stroke-linejoin:miter;stroke-miterlimit:4;stroke-dasharray:none;stroke-dashoffset:0;stroke-opacity:1;color-rendering:auto;image-rendering:auto;shape-rendering:auto;text-rendering:auto;enable-background:accumulate" d="M 17.228516 10.414062 A 1.0001 1.0001 0 0 0 16.787109 10.554688 L 11.464844 13.595703 L 16.787109 16.623047 A 1.0001 1.0001 0 1 0 17.775391 14.888672 L 15.501953 13.595703 L 17.775391 12.289062 A 1.0001 1.0001 0 0 0 17.228516 10.414062 z M 42.369141 10.427734 A 1.0001 1.0001 0 0 0 42.269531 10.429688 A 1.0001 1.0001 0 0 0 41.855469 12.304688 L 44.128906 13.603516 L 41.855469 14.896484 A 1.0016863 1.0016863 0 1 0 42.84375 16.638672 L 48.166016 13.611328 L 42.84375 10.5625 A 1.0001 1.0001 0 0 0 42.369141 10.427734 z M 21.296875 12.1875 A 1.5132851 1.5132851 0 1 0 21.296875 15.212891 L 37.810547 15.212891 A 1.5132851 1.5132851 0 1 0 37.810547 12.1875 L 21.296875 12.1875 z M 24.375 40.748047 A 1.0000997 1.0000997 0 0 0 23.458984 41.367188 L 18.771484 52.380859 A 1.002252 1.002252 0 1 0 20.617188 53.164062 L 25.296875 42.150391 A 1.0000997 1.0000997 0 0 0 24.375 40.748047 z M 17.234375 43.890625 A 1.0001 1.0001 0 0 0 17.228516 43.892578 A 1.0001 1.0001 0 0 0 16.787109 44.03125 L 11.464844 47.074219 L 16.787109 50.099609 A 1.0016861 1.0016861 0 1 0 17.775391 48.357422 L 15.501953 47.066406 L 17.775391 45.767578 A 1.0001 1.0001 0 0 0 17.234375 43.890625 z M 26.300781 46.166016 A 1.510151 1.510151 0 1 0 26.300781 49.185547 L 42.814453 49.185547 A 1.510151 1.510151 0 1 0 42.814453 46.166016 L 26.300781 46.166016 z " transform="matrix(0.26458333,0,0,0.26458333,0,280.06666)" id="path924" />
      <path style="color:black;font-style:normal;font-variant:normal;font-weight:normal;font-stretch:normal;font-size:medium;line-height:normal;font-family:sans-serif;font-variant-ligatures:normal;font-variant-position:normal;font-variant-caps:normal;font-variant-numeric:normal;font-variant-alternates:normal;font-feature-settings:normal;text-indent:0;text-align:start;text-decoration:none;text-decoration-line:none;text-decoration-style:solid;text-decoration-color:black;letter-spacing:normal;word-spacing:normal;text-transform:none;writing-mode:lr-tb;direction:ltr;text-orientation:mixed;dominant-baseline:auto;baseline-shift:baseline;text-anchor:start;white-space:normal;shape-padding:0;clip-rule:nonzero;display:inline;overflow:visible;visibility:visible;opacity:1;isolation:auto;mix-blend-mode:normal;color-interpolation:sRGB;color-interpolation-filters:linearRGB;solid-color:black;solid-opacity:1;vector-effect:none;fill:#747474;fill-opacity:1;fill-rule:nonzero;stroke:none;stroke-width:0.79904163;stroke-linecap:round;stroke-linejoin:miter;stroke-miterlimit:4;stroke-dasharray:none;stroke-dashoffset:0;stroke-opacity:1;color-rendering:auto;image-rendering:auto;shape-rendering:auto;text-rendering:auto;enable-background:accumulate" d="m 4.572124,286.09627 c -0.5447765,-0.0123 -0.5447765,0.81122 0,0.79891 h 4.3692424 c 0.5447765,0.0123 0.5447765,-0.81122 0,-0.79891 z m 0,1.4552 c -0.5447765,-0.0123 -0.5447765,0.81123 0,0.79892 h 6.935494 c 0.544776,0.0123 0.544776,-0.81122 0,-0.79892 z m 0,1.4025 c -0.5447842,-0.0123 -0.5447842,0.81123 0,0.79892 h 8.152474 c 0.544784,0.0123 0.544784,-0.81123 0,-0.79892 z" id="path926-3" inkscape:connector-curvature="0" sodipodi:nodetypes="ccccccccccccccc" />
      <path style="color:black;font-style:normal;font-variant:normal;font-weight:normal;font-stretch:normal;font-size:medium;line-height:normal;font-family:sans-serif;font-variant-ligatures:normal;font-variant-position:normal;font-variant-caps:normal;font-variant-numeric:normal;font-variant-alternates:normal;font-feature-settings:normal;text-indent:0;text-align:start;text-decoration:none;text-decoration-line:none;text-decoration-style:solid;text-decoration-color:black;letter-spacing:normal;word-spacing:normal;text-transform:none;writing-mode:lr-tb;direction:ltr;text-orientation:mixed;dominant-baseline:auto;baseline-shift:baseline;text-anchor:start;white-space:normal;shape-padding:0;clip-rule:nonzero;display:inline;overflow:visible;visibility:visible;opacity:1;isolation:auto;mix-blend-mode:normal;color-interpolation:sRGB;color-interpolation-filters:linearRGB;solid-color:black;solid-opacity:1;vector-effect:none;fill:#f28c00;fill-opacity:1;fill-rule:nonzero;stroke:none;stroke-width:0.52916664;stroke-linecap:round;stroke-linejoin:miter;stroke-miterlimit:4;stroke-dasharray:none;stroke-dashoffset:0;stroke-opacity:1;color-rendering:auto;image-rendering:auto;shape-rendering:auto;text-rendering:auto;enable-background:accumulate" d="m 12.404297,291.78906 a 0.26460978,0.26460978 0 0 0 -0.111328,0.49414 l 0.603515,0.34571 -0.603515,0.34179 a 0.26502949,0.26502949 0 1 0 0.261719,0.46094 l 1.410156,-0.80078 -1.408203,-0.80664 a 0.26460978,0.26460978 0 0 0 -0.152344,-0.0352 z" id="path924-5-1" inkscape:connector-curvature="0" />
    </g>
  </g>
  <style id="style817" type="text/css">
	.st0{fill:#FFFFFF;}
	.st1{fill:none;}
	.st2{fill:#3E5389;}
</style>
</svg>
